
<svg width="37" height="41" viewBox="0 0 37 41" fill="none" xmlns="http://www.w3.org/2000/svg">
<path d="M2.00049 22.3333C2.00049 25.5966 2.9682 28.7867 4.78124 31.5002C6.59428 34.2136 9.17123 36.3284 12.1862 37.5773C15.2012 38.8261 18.5188 39.1529 21.7195 38.5162C24.9202 37.8796 27.8602 36.3081 30.1677 34.0005C32.4753 31.6929 34.0468 28.7529 34.6834 25.5522C35.3201 22.3516 34.9933 19.034 33.7445 16.019C32.4957 13.004 30.3808 10.427 27.6674 8.614C24.954 6.80096 21.7639 5.83325 18.5005 5.83325M13.0005 14.9999V27.8333" stroke="white" stroke-width="2.75" stroke-linecap="round" stroke-linejoin="round"/>
<path d="M24.0005 15.0003H20.3338C19.8476 15.0003 19.3813 15.1935 19.0375 15.5373C18.6936 15.8811 18.5005 16.3474 18.5005 16.8337V19.5837C18.5005 20.0699 18.6936 20.5362 19.0375 20.88C19.3813 21.2238 19.8476 21.417 20.3338 21.417H22.1672C22.6534 21.417 23.1197 21.6101 23.4635 21.954C23.8073 22.2978 24.0005 22.7641 24.0005 23.2503V26.0003C24.0005 26.4866 23.8073 26.9529 23.4635 27.2967C23.1197 27.6405 22.6534 27.8337 22.1672 27.8337H18.5005M18.5005 5.83366H4.75049M4.75049 5.83366L8.41716 2.16699M4.75049 5.83366L8.41716 9.50033" stroke="white" stroke-width="2.75" stroke-linecap="round" stroke-linejoin="round"/>
</svg>
