<svg width="18" height="20" viewBox="0 0 18 20" fill="none" xmlns="http://www.w3.org/2000/svg">
<path d="M8.88752 1.66859C9.17627 0.953585 9.98064 0.183585 11.0133 0.47096C11.8245 0.69646 12.3511 1.18596 12.6536 1.84046C12.9341 2.44959 13.0029 3.16734 13.0166 3.85071C13.0304 4.58634 12.8764 5.46771 12.6963 6.24046C12.6158 6.58192 12.5264 6.92121 12.4281 7.25796H14.3325C14.7598 7.25799 15.1812 7.35757 15.5633 7.54882C15.9453 7.74007 16.2776 8.01772 16.5337 8.35975C16.7898 8.70177 16.9626 9.09877 17.0386 9.51924C17.1145 9.93971 17.0914 10.3721 16.9711 10.7821L15.0956 17.1703C14.967 17.6087 14.7522 18.017 14.4639 18.3715C14.1756 18.7259 13.8195 19.0193 13.4165 19.2345C13.0135 19.4497 12.5716 19.5824 12.1167 19.6248C11.6618 19.6673 11.203 19.6186 10.7671 19.4817L2.81277 17.1703C2.41436 17.0452 2.04968 16.831 1.7464 16.5439C1.44312 16.2568 1.2092 15.9044 1.06239 15.5135L0.919067 14.125C0.900008 13.2659 0.702995 12.337 0.918269 11.7269C1.13354 11.1167 1.55703 10.6021 2.11427 10.2733L4.68827 8.75534C4.94765 8.55019 5.1883 8.32242 5.40739 8.07471C5.88039 7.53983 6.53077 6.65021 7.1839 5.26284C7.46577 4.66334 7.70227 4.19171 7.91677 3.76409C8.26465 3.07246 8.55614 2.49359 8.88752 1.66859ZM5.42802 9.91446C5.42032 9.91919 5.41252 9.92378 5.40464 9.92821L2.81277 11.4572C2.53415 11.6216 2.32241 11.8789 2.21477 12.184C2.10713 12.489 2.22427 13.2215 2.21477 13.7055C2.20527 14.1895 2.3494 15.0295 2.3494 15.0295C2.42278 15.2251 2.5398 15.4015 2.69157 15.5452C2.84334 15.6888 3.02587 15.796 3.22527 15.8586L11.1769 18.17C11.4385 18.2524 11.7139 18.2818 11.9869 18.2565C12.26 18.2312 12.5253 18.1517 12.7673 18.0226C13.0093 17.8936 13.2231 17.7176 13.3962 17.5049C13.5694 17.2922 13.6984 17.0471 13.7756 16.784L15.6498 10.3957C15.7101 10.1906 15.7217 9.97429 15.6837 9.76391C15.6458 9.55353 15.5593 9.3549 15.4312 9.18378C15.3031 9.01267 15.1368 8.87379 14.9456 8.77817C14.7544 8.68256 14.5435 8.63284 14.3298 8.63296H11.489C11.379 8.6329 11.2707 8.60644 11.173 8.55582C11.0753 8.5052 10.9913 8.43188 10.9278 8.34203C10.8644 8.25218 10.8234 8.14842 10.8084 8.03945C10.7933 7.93049 10.8047 7.81951 10.8414 7.71584C10.9789 7.32809 11.1879 6.65571 11.3584 5.92559C11.5316 5.18584 11.654 4.43784 11.643 3.87684C11.6293 3.23334 11.5619 2.75484 11.4051 2.41659C11.2704 2.12096 11.06 1.91059 10.6461 1.79509C10.587 1.77859 10.5169 1.78409 10.4261 1.84321C10.3077 1.9278 10.2168 2.04546 10.1649 2.18146C9.84817 2.95342 9.49719 3.71088 9.11302 4.45159C8.8999 4.87646 8.67577 5.32334 8.42965 5.84721C7.72289 7.35146 6.99965 8.35246 6.43589 8.98633C6.15539 9.30259 5.91614 9.52671 5.74014 9.67659C5.65076 9.75256 5.55808 9.82459 5.46239 9.89246L5.44039 9.90621L5.43352 9.91171L5.42802 9.91446Z" fill="white"/>
</svg>
