<svg width="27" height="22" viewBox="0 0 27 22" fill="none" xmlns="http://www.w3.org/2000/svg">
<path d="M10.1472 2.63662C10.4362 1.92099 11.2413 1.1503 12.2748 1.43793C13.0868 1.66363 13.6139 2.15357 13.9167 2.80865C14.1974 3.41832 14.2663 4.13671 14.28 4.82069C14.2938 5.55697 14.1396 6.43913 13.9594 7.21256C13.8789 7.55433 13.7894 7.89392 13.691 8.23097H15.5971C16.0247 8.23099 16.4465 8.33067 16.8289 8.52209C17.2113 8.71351 17.5439 8.9914 17.8002 9.33373C18.0565 9.67607 18.2295 10.0734 18.3055 10.4943C18.3816 10.9151 18.3584 11.3479 18.2381 11.7582L16.3609 18.1522C16.2321 18.5909 16.0171 18.9996 15.7286 19.3543C15.44 19.7091 15.0836 20.0027 14.6802 20.2181C14.2768 20.4335 13.8346 20.5663 13.3793 20.6088C12.924 20.6513 12.4648 20.6026 12.0285 20.4656L4.067 18.1522C3.66823 18.0269 3.30322 17.8125 2.99967 17.5251C2.69612 17.2378 2.46199 16.8851 2.31505 16.4938L2.1716 15.1041C2.15252 14.2443 1.95533 13.3145 2.1708 12.7038C2.38627 12.0932 2.81014 11.5781 3.36787 11.249L5.94418 9.72968C6.20379 9.52435 6.44466 9.29638 6.66395 9.04844C7.13737 8.51309 7.78833 7.62268 8.44204 6.23407C8.72417 5.63404 8.96088 5.16199 9.17557 4.73399C9.52376 4.04175 9.81552 3.46236 10.1472 2.63662ZM6.68459 10.8898C6.67688 10.8946 6.66908 10.8992 6.66119 10.9036L4.067 12.434C3.78813 12.5985 3.5762 12.856 3.46846 13.1614C3.36073 13.4667 3.47797 14.1998 3.46846 14.6842C3.45895 15.1686 3.60321 16.0094 3.60321 16.0094C3.67666 16.2052 3.79379 16.3818 3.94569 16.5256C4.0976 16.6694 4.28028 16.7766 4.47987 16.8392L12.4386 19.1527C12.7004 19.2352 12.9761 19.2646 13.2494 19.2393C13.5227 19.214 13.7882 19.1344 14.0305 19.0052C14.2727 18.8761 14.4867 18.6999 14.66 18.487C14.8333 18.2741 14.9623 18.0288 15.0397 17.7654L16.9155 11.3715C16.9758 11.1662 16.9875 10.9497 16.9495 10.7391C16.9115 10.5286 16.825 10.3298 16.6967 10.1585C16.5685 9.98724 16.4021 9.84824 16.2107 9.75253C16.0193 9.65683 15.8083 9.60707 15.5943 9.60719H12.751C12.6409 9.60713 12.5325 9.58065 12.4347 9.52998C12.337 9.47931 12.2528 9.40593 12.1893 9.316C12.1258 9.22607 12.0848 9.12222 12.0698 9.01316C12.0547 8.9041 12.066 8.79302 12.1028 8.68925C12.2404 8.30116 12.4496 7.62818 12.6203 6.89741C12.7937 6.157 12.9162 5.40834 12.9052 4.84684C12.8914 4.20277 12.824 3.72384 12.6671 3.38529C12.5322 3.0894 12.3216 2.87884 11.9074 2.76324C11.8482 2.74672 11.778 2.75223 11.6872 2.8114C11.5686 2.89607 11.4777 3.01384 11.4257 3.14996C11.1087 3.9226 10.7574 4.68073 10.3729 5.4221C10.1596 5.84735 9.93525 6.29462 9.68891 6.81896C8.98152 8.32455 8.25763 9.32644 7.69337 9.96088C7.41262 10.2774 7.17315 10.5017 6.997 10.6517C6.90753 10.7278 6.81477 10.7999 6.719 10.8678L6.69698 10.8816L6.6901 10.8871L6.68459 10.8898Z" fill="white"/>
<path d="M19.1549 1.43352C18.1953 1.16645 17.4478 1.88203 17.1794 2.5465C16.8727 3.31015 16.6027 3.84688 16.2811 4.48624L16.2773 4.4939C16.0779 4.8913 15.8581 5.32959 15.5962 5.88672L16.7539 6.4298C16.9826 5.94295 17.1909 5.52766 17.389 5.13281C17.746 4.44445 18.0722 3.74053 18.3665 3.02313C18.4148 2.89674 18.4992 2.78739 18.6093 2.70878C18.6937 2.65384 18.7588 2.64873 18.8138 2.66406C19.1984 2.7714 19.3939 2.9669 19.5191 3.24163C19.6648 3.55598 19.7274 4.00066 19.7402 4.59868C19.7504 5.12003 19.6367 5.81517 19.4757 6.50263C19.3172 7.18116 19.123 7.80601 18.9952 8.16636C18.9611 8.26271 18.9506 8.36584 18.9645 8.4671C18.9785 8.56836 19.0166 8.66479 19.0755 8.74829C19.1345 8.83179 19.2126 8.89993 19.3034 8.94697C19.3941 8.99402 19.4949 9.0186 19.5971 9.01866H22.2371C22.4357 9.01855 22.6317 9.06475 22.8094 9.15361C22.9871 9.24247 23.1416 9.37154 23.2607 9.53056C23.3797 9.68958 23.4601 9.87417 23.4954 10.0697C23.5306 10.2652 23.5198 10.4662 23.4638 10.6568L21.7221 16.5936C21.6503 16.8381 21.5304 17.0659 21.3695 17.2635C21.2086 17.4612 21.0099 17.6248 20.785 17.7447C20.5601 17.8647 20.3136 17.9386 20.0598 17.9621C19.806 17.9856 19.2733 17.8908 19.307 17.8816L18.5852 17.2027L18.1519 18.6267L18.9262 19.1007C19.3313 19.2279 19.7577 19.2731 20.1804 19.2337C20.6032 19.1942 21.0138 19.0709 21.3883 18.8709C21.7629 18.6709 22.0938 18.3983 22.3617 18.0689C22.6297 17.7395 22.8292 17.36 22.9488 16.9527L24.6918 11.0159C24.8036 10.6349 24.825 10.2331 24.7544 9.8423C24.6839 9.45155 24.5232 9.08261 24.2852 8.76476C24.0473 8.44691 23.7385 8.18888 23.3834 8.01115C23.0283 7.83342 22.6367 7.74087 22.2396 7.74084H20.4698C20.5612 7.42789 20.6443 7.11258 20.719 6.79525C20.8864 6.07712 21.0295 5.25804 21.0167 4.5744C21.004 3.93932 20.9401 3.2723 20.6794 2.70623C20.3983 2.09798 19.9089 1.64308 19.1549 1.43352Z" fill="white"/>
</svg>
