<svg width="24" height="20" viewBox="0 0 24 20" fill="none" xmlns="http://www.w3.org/2000/svg">
<path d="M10.8822 0.437995C9.84868 0.150365 9.04359 0.921049 8.75457 1.63668C8.42422 2.45913 8.13346 3.03719 7.78711 3.72579L7.78295 3.73405C7.56826 4.16205 7.33154 4.6341 7.04942 5.23413C6.3957 6.62274 5.74474 7.51315 5.27131 8.04851C5.05203 8.29644 4.81116 8.52441 4.55154 8.72974L1.97522 10.2491C1.41749 10.5781 0.993613 11.0932 0.778145 11.7039C0.562677 12.3146 0.759868 13.2443 0.778944 14.1042L0.9224 15.4939C1.06934 15.8852 1.30346 16.2379 1.60702 16.5252C1.91057 16.8125 2.27558 17.027 2.67435 17.1522L10.6359 19.4656C11.0722 19.6027 11.5314 19.6514 11.9867 19.6089C12.442 19.5664 12.8842 19.4336 13.2876 19.2182C13.691 19.0028 14.0474 18.7091 14.336 18.3544C14.6245 17.9997 14.8395 17.591 14.9683 17.1522L16.8455 10.7583C16.9659 10.3479 16.989 9.91516 16.913 9.49432C16.837 9.07347 16.6639 8.67613 16.4076 8.3338C16.1513 7.99147 15.8188 7.71357 15.4363 7.52215C15.0539 7.33073 14.6321 7.23106 14.2045 7.23103L12.2984 7.23103C12.3968 6.89398 12.4863 6.55439 12.5668 6.21263C12.747 5.43919 12.9012 4.55703 12.8874 3.82075C12.8737 3.13677 12.8048 2.41838 12.5241 1.80871C12.2213 1.15363 11.6942 0.663696 10.8822 0.437995Z" fill="white"/>
<path d="M17.6818 1.12157C16.7222 0.854502 15.9746 1.57008 15.7063 2.23455L14.6782 5.37622C16.6782 5.37622 18.6787 7.36002 18.6787 9.87598L17.1121 16.8908L16.6787 18.3148L17.4531 18.7887C17.8581 18.916 18.2845 18.9612 18.7073 18.9217C19.13 18.8823 19.5407 18.7589 19.9152 18.5589C20.2897 18.3589 20.6206 18.0863 20.8886 17.7569C21.1565 17.4276 21.3561 17.0481 21.4757 16.6407L23.2186 10.7039C23.3304 10.3229 23.3519 9.92111 23.2813 9.53035C23.2107 9.1396 23.0501 8.77066 22.8121 8.45281C22.5741 8.13495 22.2653 7.87693 21.9103 7.6992C21.5552 7.52146 21.1636 7.42892 20.7665 7.42889H18.9967C19.088 7.11594 19.1711 6.80063 19.2459 6.4833C19.4133 5.76517 19.5564 4.94608 19.5436 4.26245C19.5308 3.62737 19.4669 2.96035 19.2063 2.39428C18.9251 1.78603 18.4357 1.33113 17.6818 1.12157Z" fill="white"/>
</svg>
