<svg width="15" height="15" viewBox="0 0 15 15" fill="none" xmlns="http://www.w3.org/2000/svg">
<path d="M14.4231 2.31004H11.6854C11.4836 2.31022 11.2869 2.24682 11.1231 2.12891C10.9594 2.01099 10.8369 1.84455 10.7731 1.65311L10.53 0.923133C10.4413 0.654508 10.2702 0.420668 10.0409 0.254939C9.81164 0.0892109 9.53596 -1.9342e-05 9.25307 1.56598e-07H5.74613C5.46322 -0.000136446 5.18749 0.0891005 4.95821 0.254845C4.72893 0.42059 4.55781 0.654444 4.46923 0.923133L4.22617 1.65236C4.16248 1.84394 4.04006 2.01056 3.8763 2.12862C3.71253 2.24668 3.51572 2.31016 3.31383 2.31004H0.576923C0.423914 2.31004 0.277168 2.37087 0.168973 2.47906C0.0607794 2.58725 0 2.73395 0 2.88696C0 3.03997 0.0607794 3.18667 0.168973 3.29487C0.277168 3.40306 0.423914 3.46389 0.576923 3.46389H1.57691L2.16694 12.31C2.21732 13.0396 2.5423 13.723 3.07641 14.2226C3.61051 14.7222 4.31408 15.0008 5.0454 15.0023H9.95845C10.6897 15.0006 11.3932 14.7219 11.9273 14.2224C12.4613 13.7229 12.7863 13.0396 12.8369 12.31L13.4269 3.46389H14.4231C14.5761 3.46389 14.7228 3.40306 14.831 3.29487C14.9392 3.18667 15 3.03997 15 2.88696C15 2.73395 14.9392 2.58725 14.831 2.47906C14.7228 2.37087 14.5761 2.31004 14.4231 2.31004ZM5.56382 1.28775C5.57657 1.24947 5.60106 1.21614 5.63378 1.19253C5.6665 1.16893 5.70579 1.15622 5.74613 1.15619H9.25307C9.29332 1.15617 9.33257 1.16879 9.36528 1.19225C9.39799 1.21571 9.4225 1.24886 9.43538 1.287L9.67844 2.01698C9.71227 2.1174 9.75368 2.21512 9.80229 2.30929H5.19616C5.24477 2.21486 5.28618 2.1169 5.32001 2.01623L5.56382 1.28775ZM11.6831 12.2331C11.6529 12.6709 11.458 13.0809 11.1375 13.3807C10.8171 13.6804 10.3949 13.8476 9.95615 13.8485H5.0431C4.60431 13.8476 4.18214 13.6804 3.86169 13.3807C3.54125 13.0809 3.34629 12.6709 3.31613 12.2331L2.73156 3.46389H3.31383C3.39542 3.46216 3.47685 3.45572 3.55769 3.44464C3.58888 3.45375 3.62081 3.46021 3.6531 3.46389H11.3454C11.3777 3.46025 11.4096 3.45379 11.4408 3.44464C11.5216 3.45571 11.603 3.46215 11.6846 3.46389H12.2669L11.6831 12.2331ZM9.61539 6.73312V10.5793C9.61539 10.7323 9.55461 10.879 9.44641 10.9872C9.33822 11.0954 9.19147 11.1562 9.03846 11.1562C8.88545 11.1562 8.73871 11.0954 8.63051 10.9872C8.52232 10.879 8.46154 10.7323 8.46154 10.5793V6.73312C8.46154 6.58011 8.52232 6.43341 8.63051 6.32521C8.73871 6.21702 8.88545 6.15619 9.03846 6.15619C9.19147 6.15619 9.33822 6.21702 9.44641 6.32521C9.55461 6.43341 9.61539 6.58011 9.61539 6.73312ZM6.53846 6.73312V10.5793C6.53846 10.7323 6.47768 10.879 6.36949 10.9872C6.26129 11.0954 6.11455 11.1562 5.96154 11.1562C5.80853 11.1562 5.66178 11.0954 5.55359 10.9872C5.44539 10.879 5.38462 10.7323 5.38462 10.5793V6.73312C5.38462 6.58011 5.44539 6.43341 5.55359 6.32521C5.66178 6.21702 5.80853 6.15619 5.96154 6.15619C6.11455 6.15619 6.26129 6.21702 6.36949 6.32521C6.47768 6.43341 6.53846 6.58011 6.53846 6.73312Z" fill="white"/>
</svg>
